<svg width="32" height="32" viewBox="0 0 32 32" fill="none" xmlns="http://www.w3.org/2000/svg">
  <defs>
    <linearGradient id="faviconBg" x1="0%" y1="0%" x2="100%" y2="100%">
      <stop offset="0%" style="stop-color:#4CAF50"/>
      <stop offset="100%" style="stop-color:#2E7D32"/>
    </linearGradient>
    <linearGradient id="leafGrad" x1="0%" y1="0%" x2="100%" y2="100%">
      <stop offset="0%" style="stop-color:#81C784"/>
      <stop offset="100%" style="stop-color:#66BB6A"/>
    </linearGradient>
  </defs>
  
  <!-- Rounded square background -->
  <rect width="32" height="32" rx="6" fill="url(#faviconBg)"/>
  
  <!-- Main nutrition leaf -->
  <g transform="translate(6, 6)">
    <!-- Leaf shape -->
    <path d="M10 2C14 2 18 4.5 18 9C18 13.5 14 16 10 16C6 16 2 13.5 2 9C2 4.5 6 2 10 2Z" fill="url(#leafGrad)"/>
    
    <!-- Leaf vein -->
    <path d="M10 2L10 16" stroke="rgba(255,255,255,0.4)" stroke-width="1.5" stroke-linecap="round"/>
    <path d="M10 6C8 8 6 10 4 12" stroke="rgba(255,255,255,0.3)" stroke-width="1" stroke-linecap="round"/>
    <path d="M10 6C12 8 14 10 16 12" stroke="rgba(255,255,255,0.3)" stroke-width="1" stroke-linecap="round"/>
    
    <!-- Nutrition dot -->
    <circle cx="10" cy="9" r="2" fill="white" opacity="0.9"/>
    <circle cx="10" cy="9" r="1" fill="#FF6B35"/>
  </g>
</svg>