<svg width="0" height="0" style="position: absolute;">
  <defs>
    <!-- Brand gradients for consistency -->
    <linearGradient id="iconGrad" x1="0%" y1="0%" x2="100%" y2="100%">
      <stop offset="0%" style="stop-color:#00C853;stop-opacity:1" />
      <stop offset="100%" style="stop-color:#2E7D32;stop-opacity:1" />
    </linearGradient>
    <linearGradient id="accentGrad" x1="0%" y1="0%" x2="100%" y2="100%">
      <stop offset="0%" style="stop-color:#FF6F00;stop-opacity:1" />
      <stop offset="100%" style="stop-color:#E65100;stop-opacity:1" />
    </linearGradient>
    
    <!-- Enhanced Home Icon with nutrition focus -->
    <symbol id="icon-home" viewBox="0 0 24 24">
      <path d="M12 2.5L3 8.5V11H5V20C5 20.5 5.5 21 6 21H18C18.5 21 19 20.5 19 20V11H21V8.5L12 2.5Z" fill="currentColor" stroke="none"/>
      <rect x="9" y="15" width="6" height="6" rx="1" stroke="currentColor" stroke-width="1.5" fill="none"/>
      <!-- Nutrition symbol in house -->
      <circle cx="12" cy="13" r="1.5" fill="currentColor" opacity="0.6"/>
      <path d="M12 11.5V14.5M10.5 13H13.5" stroke="currentColor" stroke-width="1" stroke-linecap="round"/>
    </symbol>
    
    <!-- Enhanced History/Progress Icon -->
    <symbol id="icon-history" viewBox="0 0 24 24">
      <circle cx="12" cy="12" r="9" stroke="currentColor" stroke-width="2.5" fill="none"/>
      <path d="M12 7V12L15.5 15" stroke="currentColor" stroke-width="2.5" stroke-linecap="round" stroke-linejoin="round"/>
      <!-- Progress indicators -->
      <circle cx="12" cy="12" r="6" stroke="currentColor" stroke-width="0.5" fill="none" opacity="0.3"/>
      <path d="M12 6A6 6 0 0 1 16.5 9" stroke="currentColor" stroke-width="1.5" stroke-linecap="round" opacity="0.7"/>
    </symbol>
    
    <!-- Enhanced Meal Planner Icon -->
    <symbol id="icon-planner" viewBox="0 0 24 24">
      <rect x="4" y="5" width="16" height="16" rx="3" stroke="currentColor" stroke-width="2" fill="none"/>
      <path d="M8 3V7M16 3V7" stroke="currentColor" stroke-width="2" stroke-linecap="round"/>
      <path d="M4 11H20" stroke="currentColor" stroke-width="2"/>
      <!-- Meal planning dots -->
      <circle cx="8" cy="15" r="1" fill="currentColor"/>
      <circle cx="12" cy="15" r="1" fill="currentColor"/>
      <circle cx="16" cy="15" r="1" fill="currentColor"/>
      <circle cx="10" cy="18" r="0.8" fill="currentColor" opacity="0.6"/>
      <circle cx="14" cy="18" r="0.8" fill="currentColor" opacity="0.6"/>
    </symbol>
    
    <!-- Enhanced Settings Icon -->
    <symbol id="icon-settings" viewBox="0 0 24 24">
      <path d="M12 8A4 4 0 1 0 12 16A4 4 0 1 0 12 8Z" stroke="currentColor" stroke-width="2" fill="none"/>
      <path d="M12 1V4M12 20V23M4.22 4.22L6.34 6.34M17.66 17.66L19.78 19.78M1 12H4M20 12H23M4.22 19.78L6.34 17.66M17.66 6.34L19.78 4.22" stroke="currentColor" stroke-width="2" stroke-linecap="round"/>
      <!-- Inner gear detail -->
      <circle cx="12" cy="12" r="2" fill="currentColor" opacity="0.3"/>
    </symbol>
    
    <!-- Enhanced Nutrition Analysis Icon -->
    <symbol id="icon-nutrition" viewBox="0 0 24 24">
      <path d="M12 3C8.5 3 5.5 5.5 5.5 8.5C5.5 11.5 7 14 9 15.5C10 16.2 12 16.2 14 15.5C17 14 18.5 11.5 18.5 8.5C18.5 5.5 15.5 3 12 3Z" fill="currentColor"/>
      <!-- Nutritional breakdown lines -->
      <path d="M12 3V15M8.5 9.5H15.5M9.5 7H14.5M10 12H14" stroke="#ffffff" stroke-width="1.2" stroke-linecap="round" opacity="0.8"/>
      <!-- Leaf detail -->
      <path d="M14 1C15.5 1 16.5 2.5 16.5 4C16.5 5.5 15.5 7 14 7C12.5 7 11.5 5.5 11.5 4C11.5 2.5 12.5 1 14 1Z" fill="#4CAF50"/>
    </symbol>
    
    <!-- Enhanced Analytics/Progress Icon -->
    <symbol id="icon-analytics" viewBox="0 0 24 24">
      <path d="M3 20V4H21" stroke="currentColor" stroke-width="2.5" stroke-linecap="round"/>
      <!-- Trend line with nutrition focus -->
      <path d="M6 16L9 12L13 14L16 9L20 7" stroke="currentColor" stroke-width="2.5" stroke-linecap="round" stroke-linejoin="round"/>
      <!-- Data points -->
      <circle cx="6" cy="16" r="2" fill="currentColor"/>
      <circle cx="9" cy="12" r="2" fill="currentColor"/>
      <circle cx="13" cy="14" r="2" fill="currentColor"/>
      <circle cx="16" cy="9" r="2" fill="currentColor"/>
      <circle cx="20" cy="7" r="2" fill="currentColor"/>
      <!-- Background bars -->
      <rect x="5" y="17" width="2" height="3" fill="currentColor" opacity="0.2"/>
      <rect x="8" y="13" width="2" height="7" fill="currentColor" opacity="0.2"/>
      <rect x="12" y="15" width="2" height="5" fill="currentColor" opacity="0.2"/>
      <rect x="15" y="10" width="2" height="10" fill="currentColor" opacity="0.2"/>
    </symbol>
    
    <!-- Enhanced Food Logging Icon -->
    <symbol id="icon-food" viewBox="0 0 24 24">
      <!-- Plate -->
      <circle cx="12" cy="14" r="8" stroke="currentColor" stroke-width="2" fill="none"/>
      <circle cx="12" cy="14" r="6" stroke="currentColor" stroke-width="0.5" fill="none" opacity="0.3"/>
      <!-- Fork -->
      <path d="M7 2V8C7 9 7.5 9.5 8.5 9.5C9.5 9.5 10 9 10 8V2" stroke="currentColor" stroke-width="1.5" stroke-linecap="round"/>
      <path d="M7 2V4M10 2V4M8.5 2V6" stroke="currentColor" stroke-width="1.5" stroke-linecap="round"/>
      <!-- Knife -->
      <path d="M17 2V8.5C17 9.5 16.5 10 15.5 10C14.5 10 14 9.5 14 8.5V2H17Z" fill="currentColor"/>
      <rect x="15" y="2" width="1" height="6" fill="#ffffff" opacity="0.5"/>
      <!-- Food items on plate -->
      <circle cx="10" cy="13" r="1.5" fill="currentColor" opacity="0.6"/>
      <circle cx="14" cy="15" r="1.2" fill="currentColor" opacity="0.7"/>
      <circle cx="12" cy="16" r="1" fill="currentColor" opacity="0.5"/>
    </symbol>
  </defs>
</svg>
