<svg width="80" height="80" viewBox="0 0 80 80" fill="none" xmlns="http://www.w3.org/2000/svg">
  <defs>
    <linearGradient id="avatarBg" x1="0%" y1="0%" x2="100%" y2="100%">
      <stop offset="0%" style="stop-color:#E8F5E9;stop-opacity:1" />
      <stop offset="50%" style="stop-color:#C8E6C9;stop-opacity:1" />
      <stop offset="100%" style="stop-color:#A5D6A7;stop-opacity:1" />
    </linearGradient>
    <linearGradient id="avatarAccent" x1="0%" y1="0%" x2="100%" y2="100%">
      <stop offset="0%" style="stop-color:#00C853;stop-opacity:1" />
      <stop offset="100%" style="stop-color:#2E7D32;stop-opacity:1" />
    </linearGradient>
    <filter id="shadow">
      <feDropShadow dx="0" dy="2" stdDeviation="3" flood-opacity="0.1"/>
    </filter>
  </defs>
  
  <!-- Outer ring -->
  <circle cx="40" cy="40" r="38" fill="url(#avatarBg)" stroke="url(#avatarAccent)" stroke-width="2"/>
  
  <!-- Main avatar container -->
  <circle cx="40" cy="40" r="32" fill="#ffffff" filter="url(#shadow)"/>
  
  <!-- Nutrition/health symbol -->
  <g transform="translate(25, 20)">
    <!-- Central apple/fruit -->
    <path d="M15 8C20 8 25 12 25 18C25 24 20 28 15 28C10 28 5 24 5 18C5 12 10 8 15 8Z" fill="url(#avatarAccent)"/>
    
    <!-- Leaf -->
    <path d="M18 4C20.5 4 22 6 22 8C22 10 20.5 12 18 12C15.5 12 14 10 14 8C14 6 15.5 4 18 4Z" fill="#4CAF50"/>
    
    <!-- Stem -->
    <rect x="14.5" y="2" width="1" height="8" rx="0.5" fill="#8BC34A"/>
    
    <!-- Health cross symbol -->
    <g transform="translate(12, 15)">
      <rect x="2" y="0" width="2" height="6" rx="1" fill="#ffffff" opacity="0.9"/>
      <rect x="0" y="2" width="6" height="2" rx="1" fill="#ffffff" opacity="0.9"/>
    </g>
  </g>
  
  <!-- Decorative health elements -->
  <circle cx="60" cy="25" r="3" fill="#4CAF50" opacity="0.6"/>
  <circle cx="20" cy="60" r="2" fill="#FF6F00" opacity="0.7"/>
  <circle cx="65" cy="55" r="2.5" fill="#00C853" opacity="0.5"/>
  
  <!-- Subtle pulse effect -->
  <circle cx="40" cy="40" r="35" stroke="url(#avatarAccent)" stroke-width="1" fill="none" opacity="0.2"/>
</svg>
